<?xml version="1.0" encoding="utf-8"?>
<!-- Generator: Adobe Illustrator 22.0.1, SVG Export Plug-In . SVG Version: 6.00 Build 0)  -->
<svg version="1.1" id="Layer_1" xmlns="http://www.w3.org/2000/svg" xmlns:xlink="http://www.w3.org/1999/xlink" x="0px" y="0px"
	 viewBox="0 0 489.3 489.3" style="enable-background:new 0 0 489.3 489.3;" xml:space="preserve">
<style type="text/css">
	.st0{fill:none;stroke:#000000;stroke-width:4;stroke-linecap:round;stroke-linejoin:round;}
</style>
<g>
	<path class="st0" d="M251.3,56.2c0,0-24,6.9-46.5,15.2c-22.4,8.3-100.4,30.8-118.9,37.3c-16,5.6-44.8,17.2-48.6,19.6
		c-3.8,2.5-4.6,4.6,0.3,5.1c4.9,0.5,69,2.3,107.6-4.3c38.5-6.6,76.4-15.2,90.6-17.2c14.2-2,23.4-3,23.4-3"/>
	<path class="st0" d="M49.7,130.5c0,0,44.1-5.6,64.9-10.6c20.8-5,43.5-11.6,60.3-15.5c16.8-4,57-6.9,69.5-10.9
		c12.5-4,26-10.6,26-10.6"/>
	<path class="st0" d="M243.9,75.3c0,0-9.1,3.3-21,5.3c-11.9,2-16.7,2-16.7,2S225.2,74.7,243.9,75.3z"/>
	<path class="st0" d="M196.7,82.9c0,0-54.5,19.2-73,21.6"/>
	<path class="st0" d="M259.3,81.2c0,0-11.6-2.6-27.5,1.7c-15.9,4.3-33.7,10.9-33.7,10.9"/>
	<path class="st0" d="M189.8,93.6c0,0-45.6,16.4-62.1,18.1"/>
	<path class="st0" d="M349.6,77.1c-3.3-0.3-16.6,1.7-17.8,1.7c-1.2,0-6.6-1.9-10-2.2c-3.5-0.3-2.5-1.9-2.1-1.9
		c5.9-2.6,15.2-15.9,15.2-15.9s-1-1.5-3.3-3.2c-3.8-3.2-9.6-6.2-14.3-6.7c-4.8-0.5-9.9,3.6-15.6,6.7c-5.8,3.1-19.3,4.7-19.3,4.7
		l-2.5-1.5l-4-1.2l-3.3-2l-2.1-0.4l-3.4,1.8l-4.3-0.3l-0.3-2.3l-11,1.3c0,0,3.6-5.4,9.9-7.7c6.3-2.3,14.2-8.6,18.4-9.9
		c4.3-1.3,18.4-5.9,23.1-7.9c4.6-2,29.6-15.8,49.7-12.5c20.1,3.3,46.4,10.2,60.6,25.7c14.2,15.5,26.4,33.9,26.4,33.9
		s15.5,30.4,15.5,57.2c0,26.8-5.9,45.2-5.9,45.2l-4.6,12.8c0,0-7.2,23.1-30,43.1c-22.7,20.1-35.6,23.4-62.9,28.3
		c-13.2,2.3-33.6,10.5-34.6,17.1c-1,6.6-1.3,22.4-1.3,22.4l-2.6,43.8l-2,25h-82.5"/>
	<path class="st0" d="M201.1,118.4c0,0,15.8,0.3,40.2-1.6c24.4-2,26.4-2,40.2-0.6c13.8,1.4,26.4-1.6,43.5-1.6c17.1,0,54-1.2,56,34.3
		c2,35.4-22.7,35.4-30,34.8c-7.3-0.7-16.1-3-16.1-3s-10.2-4-20.4-3.3c-10.2,0.7-17.5,9.6-18.5,11.9c0,0.2-11.2,6.6-11.2,13.8
		c-5.9,3.6-20.7,11.2-33.8,52c-5.8,19.8-10.4,33.6-10.4,33.6s-4.6,9.9-5.3,17.1c-0.7,7.2-3.3,15.8-3.3,23.1c0,7.2-1.3,48.7-1.3,48.7
		"/>
	<path class="st0" d="M270.5,83c0,0,4,1.8,12.5,1.5c8.4-0.3,12.4-3.1,16.2-0.2c3.8,2.9,7.3,6.1,11.9,1.7c4.6-4.4,11.1-4.2,15.2-3.6
		c4.1,0.6,13.9-2.5,17.6-2.5"/>
	<path class="st0" d="M318.4,52.6c0,0-10.5,0-12.5,10c-2,10,8.6,9.5,8.6,9.5s11.1,0,12.8-10.3C329,51.4,318.4,52.6,318.4,52.6z"/>
	<path class="st0" d="M316,59.4c0,0-3.3,0-3.9,3c-0.6,3,2.7,2.8,2.7,2.8s3.5,0,4-3.1C319.3,59,316,59.4,316,59.4z"/>
	<path class="st0" d="M283.1,87l-5.8,0.6l-2.6,1.7c0,0-0.3,0.5-1.2,1.2c-0.8,0.7,0.4,0.5-1.3,1.3c-1.7,0.8-2,0.9-2,1.7
		c0,0.8,0.7-0.1-0.6,0.8c-1.3,0.9-0.4,0.6-1.6,1.6c-1.2,1-1.2-0.3-1.8,1c-0.7,1.3,0.4,0.3-0.5,1.8c-1,1.5,0.2,1-1.6,2.3
		c-1.8,1.3-1.5,1.2-2.3,1.8c-0.8,0.7-0.4,0.2-0.4,1.3c0,1.2-0.7,1.3-0.7,1.3l-0.1,0.6c0,0-0.6-0.5-0.6,0.8s-0.6,2.1-0.6,2.1
		l-0.5,0.3l8.8-1.2l2.5-0.2l5.8,1c0,0,4,0.9,4.8,0.9c0.8,0,6.1-0.4,7.1-0.4c1,0,5.3-1,6.4-1c1.2,0,4.5-0.2,5.1-0.5
		c0.7-0.3,4.1-2.2,4.1-2.2s4-1.5,4.8-1.7c0.8-0.2,7.1-2.2,7.1-2.2l4.7-0.2l5.4-0.2l6.3-1.3"/>
	<path class="st0" d="M347.5,102.2c0,0-0.5-13.3,15.4-15.2"/>
	<path class="st0" d="M378.1,23.6c0,0-25-5.5-39.9-1c-14.8,4.5-15.6,5.3-17.3,5.9c-1.7,0.7-5.6,1.8-5.6,1.8s0.2-0.2-1.8,0.6
		c-2.1,0.8-2.5,0.8-3.3,1.3c-0.8,0.5-1.5,0.2-3.3,1.2c-1.8,1-2.4,0.3-3.4,1.3c-1,1-1,0-2,1.5c-1,1.5-2.6,3-2.6,3s-3.6-0.3-3.6,0.4
		c0,0.7-1.5,1.5-2.2,1.5s-1.8,0.6-1.8,0.6s-1.2-1.4-1.8-0.4s-1.3,0.2-2-0.2c-0.7-0.3-2-1.3-2-1.3s-0.5-0.7-1-0.3
		c-0.5,0.3,0.5,0.2-1.2,0.7c-1.6,0.5-0.5-0.3-2.3,1c-1.8,1.3-0.7,0.1-2.6,1.3c-2,1.2-1.2,1.5-1.6,2.3c-0.5,0.8-0.8-0.6-1.5,0.3
		c-0.7,0.9-1,0.9-1.8,1.4c-0.8,0.5-0.3-1-0.3,0.5c0,1.5-1,1.3-2,1.3c-1,0-2.1-0.6-2.1,0c0,0.6,1.6,1.8,1.4,2.8
		c-0.2,1-1.2,0.1-1.2,0.1c-0.7,0.9,1,0.9,1,0.9s2.8-0.4,2.8-0.9c0-0.5,0-1.7,0.5-1.3c0.5,0.3,2.3,0.7,2.8,0.8c0.5,0.2,1.6,0,1.6,0
		l1.2-0.7l3.8,0.2l4,0.5c0,0,1.5-1,1.8-0.5c0.3,0.5,2.6-0.2,2.6-0.2l0.6-2.5c0,0-1.3-1.7,0.3-1c1.6,0.7,5.8,1.3,6.3,0.7
		c0.5-0.7,3.3-3.1,3.8-3c0.5,0.2,0.8-0.2,0.8-0.2l2-1.3l1.8-1.5l2-0.2c0,0-0.9-1.7,0.8,1c1.7,2.6,5.4,2.5,6.8,2.5
		c1.4,0,7.4-0.7,7.7,0.2c0.3,0.8-0.8,0.3,2.5,0.8c3.3,0.5,6.1-1.2,7.1,1c1,2.1,1.2,0.8,1.6,2.5c0.5,1.7,1,1.4,2.5,3
		c1.5,1.6,3.3,0.5,3.5,2.1c0.2,1.6-1.8,0.9,1.5,1.6c3.3,0.7,5.1,0.6,5.1,0.6s-1-0.6,1.3-0.6c2.3,0,8.7,1.2,8.7,1.2l2.5-1.2
		c0.3,0.9,0.9,0.4,1.6,0.7c0.7,0.3,2.6-0.3,2,1s-0.1,0.5-0.7,1.4c-0.6,0.9-0.6,0.4-0.6,1.2s-1.2,0.5,0,0.8c1.2,0.3,3.9-0.2,3.9-0.2
		l2.5-1l3-4c0,0,4.5-0.7,5.3,0c0.8,0.7,0.8,0.2,2.5,1.2c1.7,1,3.6,1.9,4.9,1.9c1.3,0,2.8,0.5,2.8,0.5l3.1,0.5c0,0-1.6-0.3-2-1
		c-0.3-0.8-1.3-1.8-1.3-1.8s-2.5-1.4-1.6-1.4c0.8,0,10.7,1.9,18.6,10c0.9-2.2,1.7-4.5,1.3-7.6c-0.5-3.1,22.9,2.1,33,18.3"/>
	<line class="st0" x1="371.2" y1="82.6" x2="384.3" y2="81.2"/>
	<line class="st0" x1="389.3" y1="87" x2="402.5" y2="89.5"/>
	<line class="st0" x1="402.4" y1="86.5" x2="410.4" y2="88.7"/>
	<line class="st0" x1="414" y1="101" x2="422.3" y2="106.8"/>
	<line class="st0" x1="405.1" y1="119.4" x2="407.7" y2="126.2"/>
	<line class="st0" x1="411.7" y1="120.1" x2="415.3" y2="123.7"/>
	<line class="st0" x1="420.3" y1="117.4" x2="429.3" y2="131.1"/>
	<line class="st0" x1="419.8" y1="128.3" x2="435.8" y2="152.3"/>
	<line class="st0" x1="418.1" y1="134.4" x2="419.5" y2="142.9"/>
	<line class="st0" x1="415.7" y1="136.2" x2="413.4" y2="140.6"/>
	<line class="st0" x1="409.3" y1="128" x2="409.3" y2="136.1"/>
	<line class="st0" x1="404.8" y1="126.2" x2="404.8" y2="131.1"/>
	<line class="st0" x1="402.2" y1="122.7" x2="402.6" y2="138.7"/>
	<line class="st0" x1="392" y1="117.1" x2="393.3" y2="122.9"/>
	<line class="st0" x1="389.4" y1="122.8" x2="389.4" y2="132.2"/>
	<line class="st0" x1="391.4" y1="133.8" x2="392.8" y2="143.2"/>
	<line class="st0" x1="400.1" y1="156.1" x2="398.4" y2="172.5"/>
	<line class="st0" x1="402.9" y1="169.5" x2="398.1" y2="178.9"/>
	<line class="st0" x1="409.9" y1="164.2" x2="404" y2="180.3"/>
	<line class="st0" x1="402.6" y1="175.7" x2="393.9" y2="200.3"/>
	<line class="st0" x1="396" y1="187.9" x2="389.2" y2="208.5"/>
	<line class="st0" x1="392.2" y1="185.6" x2="387.4" y2="202"/>
	<line class="st0" x1="391.6" y1="175.5" x2="382.6" y2="185.6"/>
	<line class="st0" x1="387.2" y1="176.9" x2="381.5" y2="182.8"/>
	<line class="st0" x1="391" y1="170.7" x2="374.1" y2="183.2"/>
	<line class="st0" x1="387.1" y1="169.1" x2="371.2" y2="181.4"/>
	<line class="st0" x1="361.6" y1="194.4" x2="355.7" y2="196.9"/>
	<line class="st0" x1="355.7" y1="191.1" x2="343.5" y2="193.9"/>
	<line class="st0" x1="358.3" y1="188.7" x2="326.5" y2="192.6"/>
	<line class="st0" x1="330.3" y1="190.6" x2="316.5" y2="194.6"/>
	<line class="st0" x1="319.4" y1="190.6" x2="296.4" y2="198.3"/>
	<line class="st0" x1="324.7" y1="178.2" x2="296.2" y2="203.2"/>
	<line class="st0" x1="416" y1="151" x2="417.7" y2="156.3"/>
	<line class="st0" x1="419.3" y1="159" x2="422.7" y2="172.3"/>
	<line class="st0" x1="422.5" y1="156.1" x2="424.9" y2="175.7"/>
	<line class="st0" x1="427.7" y1="164" x2="429.7" y2="176.7"/>
	<line class="st0" x1="430.1" y1="163.9" x2="436.3" y2="172.6"/>
	<line class="st0" x1="433.3" y1="168.6" x2="433.3" y2="185.6"/>
	<line class="st0" x1="413.4" y1="179.7" x2="414.7" y2="217.7"/>
	<line class="st0" x1="413.1" y1="208.5" x2="411.3" y2="219.4"/>
	<line class="st0" x1="407.3" y1="213.8" x2="396.4" y2="236.5"/>
	<line class="st0" x1="394.1" y1="219.3" x2="384.2" y2="239.9"/>
	<line class="st0" x1="381.7" y1="236.6" x2="370.8" y2="246"/>
	<line class="st0" x1="371.4" y1="240" x2="349.5" y2="251"/>
	<line class="st0" x1="360.6" y1="245.4" x2="342.3" y2="255.7"/>
	<line class="st0" x1="343.7" y1="241.1" x2="323.3" y2="256.2"/>
	<line class="st0" x1="347.2" y1="232.3" x2="319.4" y2="256.2"/>
	<line class="st0" x1="330.5" y1="240.7" x2="306.9" y2="260.4"/>
	<line class="st0" x1="333.6" y1="229.5" x2="316.5" y2="246.4"/>
	<line class="st0" x1="326.6" y1="213.8" x2="305.1" y2="235.1"/>
	<line class="st0" x1="316.3" y1="229.1" x2="287.1" y2="264"/>
	<line class="st0" x1="301.4" y1="232.3" x2="289.5" y2="246.8"/>
	<line class="st0" x1="304.9" y1="203.4" x2="270.5" y2="275.8"/>
	<ellipse class="st0" cx="270.2" cy="431.2" rx="41.2" ry="40.9"/>
</g>
</svg>
